<svg width="48" height="48" viewBox="0 0 48 48" fill="none" xmlns="http://www.w3.org/2000/svg">
<circle cx="24" cy="24" r="24" fill="#F2F2F7"/>
<path d="M24 12.3333C25.1537 12.3333 26.2816 12.6755 27.2408 13.3164C28.2001 13.9574 28.9478 14.8684 29.3893 15.9343C29.8308 17.0003 29.9463 18.1731 29.7213 19.3047C29.4962 20.4363 28.9406 21.4757 28.1248 22.2915C27.309 23.1073 26.2696 23.6628 25.138 23.8879C24.0065 24.113 22.8336 23.9975 21.7677 23.556C20.7018 23.1145 19.7907 22.3668 19.1498 21.4075C18.5088 20.4482 18.1667 19.3204 18.1667 18.1667L18.1725 17.9135C18.2377 16.4117 18.8802 14.9931 19.9659 13.9534C21.0517 12.9138 22.4968 12.3334 24 12.3333ZM26.3333 26.3333C27.8804 26.3333 29.3642 26.9479 30.4581 28.0419C31.5521 29.1358 32.1667 30.6196 32.1667 32.1667V33.3333C32.1667 33.9522 31.9208 34.5457 31.4833 34.9833C31.0457 35.4208 30.4522 35.6667 29.8333 35.6667H18.1667C17.5478 35.6667 16.9543 35.4208 16.5168 34.9833C16.0792 34.5457 15.8333 33.9522 15.8333 33.3333V32.1667C15.8333 30.6196 16.4479 29.1358 17.5419 28.0419C18.6358 26.9479 20.1196 26.3333 21.6667 26.3333H26.3333Z" fill="#C7C7CC"/>
</svg>
